<?xml version="1.0" encoding="utf-8"?>
<!-- Generator: Adobe Illustrator 16.0.0, SVG Export Plug-In . SVG Version: 6.00 Build 0)  -->
<!DOCTYPE svg PUBLIC "-//W3C//DTD SVG 1.1//EN" "http://www.w3.org/Graphics/SVG/1.1/DTD/svg11.dtd">
<svg version="1.1" id="Layer_1" xmlns="http://www.w3.org/2000/svg" xmlns:xlink="http://www.w3.org/1999/xlink" x="0px" y="0px"
	 width="1000px" height="1370px" viewBox="0 0 1000 1370" enable-background="new 0 0 1000 1370" xml:space="preserve">
<rect x="980" fill="#B9BF00" width="20" height="1240"/>
<rect x="520" y="200" fill="#B9BF00" width="20" height="760"/>
<rect x="600" y="740" fill="#B9BF00" width="20" height="400"/>
<rect x="380" y="700" fill="#B9BF00" width="20" height="141"/>
<rect x="20" y="1220" fill="#FF0000" width="960" height="20"/>
<rect fill="#B9BF00" width="20" height="1240"/>
<rect x="700" y="1140" fill="#FF0000" width="280" height="20"/>
<rect x="840" y="1060" fill="#FF0000" width="140" height="20"/>
<rect x="440" y="1140" fill="#FF0000" width="180" height="20"/>
<rect x="220" y="841" fill="#FF0000" width="180" height="20"/>
<rect x="20" y="960" fill="#FF0000" width="520" height="20"/>
<rect x="400" y="841" fill="#7F1200" width="60" height="20"/>
<rect x="400" y="741" fill="#FF0000" width="60" height="20"/>
<rect x="620" y="740" fill="#FF0000" width="140" height="20"/>
<rect x="680" y="880" fill="#FF0000" width="60" height="20"/>
<rect x="800" y="880" fill="#FF0000" width="60" height="20"/>
<rect x="740" y="880" fill="#7F1200" width="60" height="20"/>
<rect x="720" y="860" fill="#07FF00" width="20" height="20"/>
<rect x="220" y="940" fill="#07FF00" width="20" height="20"/>
<rect x="260" y="821" fill="#07FF00" width="20" height="20"/>
<rect x="760" y="960" fill="#FF0000" width="100" height="20"/>
<rect x="620" y="1040" fill="#FF0000" width="140" height="20"/>
<rect x="480" y="660" fill="#FF0000" width="40" height="20"/>
<rect x="40" y="861" fill="#00A6E9" width="20" height="20"/>
<rect x="320" y="861" fill="#00A6E9" width="20" height="20"/>
<rect x="340" y="861" fill="#00A6E9" width="20" height="20"/>
<rect x="360" y="861" fill="#00A6E9" width="20" height="20"/>
<rect x="380" y="861" fill="#00A6E9" width="20" height="20"/>
<rect x="420" y="761" fill="#00A6E9" width="20" height="20"/>
<rect x="740" y="760" fill="#00A6E9" width="20" height="20"/>
<rect x="360" y="1020" fill="#7F1200" width="80" height="20"/>
<rect x="340" y="1120" fill="#FF0000" width="100" height="20"/>
<rect x="20" y="1100" fill="#FF0000" width="320" height="20"/>
<rect x="20" fill="#FF0000" width="960" height="20"/>
<rect x="100" y="1200" fill="#07FF00" width="20" height="20"/>
<rect x="700" y="1120" fill="#07FF00" width="20" height="20"/>
<rect x="240" y="940" fill="#07FF00" width="20" height="20"/>
<rect x="260" y="1120" fill="#00A6E9" width="20" height="20"/>
<rect x="280" y="1120" fill="#00A6E9" width="20" height="20"/>
<rect x="300" y="1120" fill="#00A6E9" width="20" height="20"/>
<rect x="320" y="1120" fill="#00A6E9" width="20" height="20"/>
<rect x="120" y="1200" fill="#07FF00" width="20" height="20"/>
<rect x="140" y="1200" fill="#07FF00" width="20" height="20"/>
<rect x="160" y="1200" fill="#07FF00" width="20" height="20"/>
<rect x="40" y="1200" fill="#858585" width="20" height="20"/>
<rect x="380" y="980" fill="#00A6E9" width="20" height="20"/>
<rect x="400" y="980" fill="#00A6E9" width="20" height="20"/>
<rect x="380" y="1040" fill="#DF0092" width="20" height="20"/>
<rect x="960" y="1160" fill="#DF0092" width="20" height="20"/>
<rect x="900" y="1040" fill="#F0FF00" width="20" height="20"/>
<rect x="240" y="861" fill="#DF0092" width="20" height="20"/>
<rect x="740" y="900" fill="#DF0092" width="20" height="20"/>
<rect x="540" y="440" fill="#009F32" width="280" height="20"/>
<rect x="600" y="340" fill="#FF0000" width="380" height="20"/>
<rect x="260" y="80" fill="#FF0000" width="380" height="20"/>
<rect x="140" y="520" fill="#FF0000" width="380" height="20"/>
<rect x="860" y="320" fill="#07FF00" width="20" height="20"/>
<rect x="620" y="420" fill="#F0FF00" width="20" height="20"/>
<rect x="620" y="720" fill="#07FF00" width="20" height="20"/>
<rect x="640" y="720" fill="#07FF00" width="20" height="20"/>
<rect x="660" y="720" fill="#07FF00" width="20" height="20"/>
<rect x="680" y="720" fill="#07FF00" width="20" height="20"/>
<rect x="720" y="720" fill="#DF0092" width="20" height="20"/>
<rect x="280" y="320" fill="#FF0000" width="120" height="20"/>
<rect x="20" y="200" fill="#FF0000" width="240" height="20"/>
<rect x="280" y="300" fill="#07FF00" width="20" height="20"/>
<rect x="300" y="300" fill="#07FF00" width="20" height="20"/>
<rect x="320" y="300" fill="#07FF00" width="20" height="20"/>
<rect x="340" y="300" fill="#07FF00" width="20" height="20"/>
<rect x="360" y="300" fill="#07FF00" width="20" height="20"/>
<rect x="380" y="300" fill="#07FF00" width="20" height="20"/>
<rect x="440" y="220" fill="#FF0000" width="80" height="20"/>
<rect x="460" y="200" fill="#07FF00" width="20" height="20"/>
<rect x="480" y="200" fill="#07FF00" width="20" height="20"/>
<rect x="500" y="200" fill="#07FF00" width="20" height="20"/>
<rect x="440" y="200" fill="#07FF00" width="20" height="20"/>
<rect x="40" y="920" fill="#060074" width="20" height="20"/>
<rect x="260" y="100" fill="#B9BF00" width="20" height="240"/>
<rect x="440" y="440" fill="#FF0000" width="80" height="20"/>
<rect x="460" y="420" fill="#07FF00" width="20" height="20"/>
<rect x="480" y="420" fill="#07FF00" width="20" height="20"/>
<rect x="500" y="420" fill="#07FF00" width="20" height="20"/>
<rect x="440" y="420" fill="#07FF00" width="20" height="20"/>
<rect x="300" y="220" fill="#DF0092" width="20" height="20"/>
<rect x="280" y="240" fill="#7F1200" width="80" height="20"/>
<rect x="860" y="880" fill="#7F1200" width="120" height="20"/>
<rect x="20" y="1020" fill="#7F1200" width="80" height="20"/>
<rect x="40" y="1080" fill="#DF0092" width="20" height="20"/>
<rect x="20" y="1040" fill="#7F1200" width="80" height="20"/>
<rect x="20" y="1060" fill="#7F1200" width="80" height="20"/>
<rect x="80" y="1080" fill="#07FF00" width="20" height="20"/>
<rect x="100" y="1020" fill="#B9BF00" width="20" height="81"/>
<rect x="940" y="360" fill="#DF0092" width="20" height="20"/>
<rect x="900" y="360" fill="#00A6E9" width="20" height="20"/>
<rect x="120" y="180" fill="#F05900" width="20" height="20"/>
<rect x="280" y="140" fill="#00A6E9" width="20" height="20"/>
<rect x="300" y="120" fill="#00A6E9" width="20" height="20"/>
<rect x="280" y="100" fill="#FF0000" width="40" height="20"/>
<rect x="280" y="120" fill="#FF0000" width="20" height="20"/>
<rect x="80" y="80" fill="#009F32" width="120" height="20"/>
<rect x="20" y="20" fill="#DF0092" width="20" height="20"/>
<rect x="360" y="60" fill="#07FF00" width="20" height="20"/>
<rect x="20" y="600" fill="#FF0000" width="380" height="20"/>
<rect x="340" y="340" fill="#B9BF00" width="20" height="120"/>
<rect x="800" y="20" fill="#00A6E9" width="20" height="20"/>
<rect x="820" y="20" fill="#00A6E9" width="20" height="20"/>
<rect x="20" y="520" fill="#7F1200" width="120" height="20"/>
<rect x="100" y="580" fill="#F0FF00" width="20" height="20"/>
<rect x="280" y="580" fill="#07FF00" width="20" height="20"/>
<rect x="20" y="700" fill="#FF0000" width="180" height="20"/>
<rect x="20" y="720" fill="#FF0000" width="260" height="20"/>
<rect x="200" y="700" fill="#07FF00" width="20" height="20"/>
<rect x="220" y="700" fill="#07FF00" width="20" height="20"/>
<rect x="40" y="640" fill="#DF0092" width="20" height="20"/>
<rect x="20" y="841" fill="#009F32" width="200" height="20"/>
<rect x="80" y="801" fill="#7F1200" width="60" height="20"/>
<rect x="80" y="821" fill="#DF0092" width="20" height="20"/>
<rect x="60" y="821" fill="#07FF00" width="20" height="20"/>
<rect x="620" y="760" fill="#DF0092" width="20" height="20"/>
<rect x="240" y="180" fill="#DF0092" width="20" height="20"/>
</svg>
